<?xml version="1.0" encoding="UTF-8"?>
<svg version="1.1" xmlns="http://www.w3.org/2000/svg" width="280" height="280">
<path d="M0 0 C1.1461377 0.32145996 1.1461377 0.32145996 2.31542969 0.64941406 C25.11138517 7.20480185 44.45298402 19.21995626 62 35 C62.66386719 35.59167969 63.32773438 36.18335938 64.01171875 36.79296875 C81.88643213 53.66769816 94.61650302 78.49371111 101 102 C101.31839844 103.15886719 101.63679688 104.31773438 101.96484375 105.51171875 C109.78715572 140.58595628 102.80847419 179.43144214 83.86376953 209.82275391 C64.09495013 240.01528233 35.17578015 262.77123074 0 272 C-0.77150391 272.20737793 -1.54300781 272.41475586 -2.33789062 272.62841797 C-39.97843489 282.32998449 -78.0519114 274.33689991 -111 255 C-114.86064478 252.53807108 -118.44802329 249.88631391 -122 247 C-122.51224121 246.59168945 -123.02448242 246.18337891 -123.55224609 245.76269531 C-149.94527124 224.65140511 -171.01579925 192.31747477 -175.5625 158.26171875 C-179.57903317 117.92354442 -171.08246291 79.50394958 -145.265625 47.5859375 C-142.57994298 44.32641569 -139.808493 41.15428343 -137 38 C-136.36835938 37.28328125 -135.73671875 36.5665625 -135.0859375 35.828125 C-102.1630138 0.7296777 -45.78663654 -13.17644337 0 0 Z " fill="#697487" transform="translate(176,4)"/>
<path d="M0 0 C-2.64 6.27 -5.28 12.54 -8 19 C-18.72695816 16.08650519 -18.72695816 16.08650519 -22.390625 14.92578125 C-32.15706668 12.42075238 -42.30087817 12.98875764 -51.37890625 17.3984375 C-60.15319732 22.7597778 -64.94469753 30.40716284 -67.61328125 40.265625 C-69.48719814 53.51554243 -69.26735061 69.0265564 -61.37109375 80.3203125 C-56.88561821 85.81533952 -51.88818616 88.73217443 -45 90 C-37.81379297 90.44811949 -31.13567504 90.01938215 -24 89 C-24 81.08 -24 73.16 -24 65 C-31.26 65 -38.52 65 -46 65 C-46 58.4 -46 51.8 -46 45 C-30.82 45 -15.64 45 0 45 C0 64.8 0 84.6 0 105 C-49.66888677 116.28838336 -49.66888677 116.28838336 -71.4375 104.1875 C-82.33763468 97.03372912 -89.82769592 86.22963034 -92.54638672 73.42700195 C-96.43632827 51.4157621 -95.48906262 31.06735347 -82.78515625 12.1953125 C-75.04513747 2.13589415 -61.91066247 -4.08219605 -49.73828125 -6.53125 C-32.74091225 -8.66258154 -15.68819572 -7.10871369 0 0 Z " fill="#FCFDFD" transform="translate(236,92)"/>
<path d="M0 0 C59.41092637 0 59.41092637 0 69.765625 9.64453125 C77.37862882 17.49744065 79.62272833 26.25549359 79.47070312 37.01000977 C79.00009347 47.53239115 75.60387232 56.60203525 68 64 C55.45627674 74.36422236 39.56070776 74 24 74 C24 87.53 24 101.06 24 115 C16.08 115 8.16 115 0 115 C0 77.05 0 39.1 0 0 Z " fill="#FCFDFD" transform="translate(46,87)"/>
<path d="M0 0 C3.17625 -0.0825 6.3525 -0.165 9.625 -0.25 C10.6145166 -0.28641602 11.6040332 -0.32283203 12.62353516 -0.36035156 C18.2740871 -0.43116907 21.59787417 0.11343845 26 4 C28.90026519 6.8568336 29.90015706 8.32075355 30.49609375 12.375 C30.47675781 13.57125 30.45742187 14.7675 30.4375 16 C30.43621094 17.19625 30.43492188 18.3925 30.43359375 19.625 C29.96877023 23.24308576 29.19606176 25.11798888 27 28 C17.91860942 34.11247443 11.46470151 34 0 34 C0 22.78 0 11.56 0 0 Z " fill="#6A7487" transform="translate(70,107)"/>
<path d="M0 0 C2.0625 0.4375 2.0625 0.4375 4 1 C4 1.66 4 2.32 4 3 C3.34 3 2.68 3 2 3 C1.34 4.32 0.68 5.64 0 7 C-0.66 6.67 -1.32 6.34 -2 6 C-1.125 1.125 -1.125 1.125 0 0 Z " fill="#737B8B" transform="translate(155,97)"/>
<path d="M0 0 C0.66 0 1.32 0 2 0 C2.33 0.99 2.66 1.98 3 3 C2.34 3 1.68 3 1 3 C1 3.99 1 4.98 1 6 C-0.32 6.33 -1.64 6.66 -3 7 C-2.38722388 4.03824877 -1.74627478 2.61941217 0 0 Z " fill="#747C8A" transform="translate(28,55)"/>
<path d="M0 0 C2.475 0.495 2.475 0.495 5 1 C5.33 2.32 5.66 3.64 6 5 C5.01 5.33 4.02 5.66 3 6 C2.01 4.02 1.02 2.04 0 0 Z " fill="#777F8E" transform="translate(17,207)"/>
<path d="M0 0 C0 0.66 0 1.32 0 2 C-4.38461538 5 -4.38461538 5 -7 5 C-7 4.01 -7 3.02 -7 2 C-4.35261084 0.5393715 -3.10551666 0 0 0 Z " fill="#767D8E" transform="translate(213,258)"/>
<path d="M0 0 C1.32 0.66 2.64 1.32 4 2 C2.35 3.32 0.7 4.64 -1 6 C-1 2 -1 2 0 0 Z " fill="#737A8A" transform="translate(230,242)"/>
<path d="M0 0 C0.66 0 1.32 0 2 0 C1.40072174 3.35595828 0.15377564 5.37801226 -2 8 C-1.125 1.125 -1.125 1.125 0 0 Z " fill="#747B88" transform="translate(150,105)"/>
<path d="M0 0 C0.33 0.99 0.66 1.98 1 3 C-1.97 5.475 -1.97 5.475 -5 8 C-5.66 7.67 -6.32 7.34 -7 7 C-4.69 4.69 -2.38 2.38 0 0 Z " fill="#949AA6" transform="translate(45,36)"/>
</svg>
